<?xml version="1.0" encoding="UTF-8" standalone="no" ?>
<!DOCTYPE svg PUBLIC "-//W3C//DTD SVG 1.1//EN" "http://www.w3.org/Graphics/SVG/1.1/DTD/svg11.dtd">
<svg xmlns="http://www.w3.org/2000/svg" xmlns:xlink="http://www.w3.org/1999/xlink" version="1.1" width="1080" height="1080" viewBox="0 0 1080 1080" xml:space="preserve">
<desc>Created with Fabric.js 5.2.4</desc>
<defs>
</defs>
<rect x="0" y="0" width="100%" height="100%" fill="transparent"></rect>
<g transform="matrix(1 0 0 1 540 540)" id="8fbc3f0c-fec6-4c5d-97ff-d5d5e425a375"  >
<rect style="stroke: none; stroke-width: 1; stroke-dasharray: none; stroke-linecap: butt; stroke-dashoffset: 0; stroke-linejoin: miter; stroke-miterlimit: 4; fill: rgb(255,255,255); fill-rule: nonzero; opacity: 1; visibility: hidden;" vector-effect="non-scaling-stroke"  x="-540" y="-540" rx="0" ry="0" width="1080" height="1080" />
</g>
<g transform="matrix(1 0 0 1 540 540)" id="0867d733-6592-416d-8317-3db2a3565600"  >
</g>
<g transform="matrix(2.51 0 0 -3.49 399.21 659.68)" id="c6057f48-be38-4491-a424-a7e35fb1f6f1"  >
<polygon style="stroke: rgb(0,0,0); stroke-width: 17; stroke-dasharray: none; stroke-linecap: butt; stroke-dashoffset: 0; stroke-linejoin: miter; stroke-miterlimit: 4; fill: rgb(221,75,75); fill-rule: nonzero; opacity: 1;" vector-effect="non-scaling-stroke"  points="-37.43,32.41 0,-32.41 37.43,32.41 " />
</g>
<g transform="matrix(0 -3.03 1 0 398.65 690.67)" id="7e4a5ca8-0dc9-4e91-b861-f0ce99807383"  >
<path style="stroke: rgb(0,0,0); stroke-width: 0; stroke-dasharray: none; stroke-linecap: butt; stroke-dashoffset: 0; stroke-linejoin: miter; stroke-miterlimit: 4; fill: rgb(221,75,75); fill-rule: nonzero; opacity: 1;" vector-effect="non-scaling-stroke"  transform=" translate(-50, -50)" d="M 94.75 50 C 94.75 56.213 89.514 61.25 83.054 61.25 L 16.946 61.25 C 10.486 61.25 5.25 56.213 5.25 50 L 5.25 50 C 5.25 43.787 10.486 38.75 16.945999999999998 38.75 L 83.053 38.75 C 89.514 38.75 94.75 43.787 94.75 50 L 94.75 50 z" stroke-linecap="round" />
</g>
<g transform="matrix(1 0 0 1 396.88 504.06)" id="46b1b03f-adbc-411a-99f8-31a7753fe6e3"  >
<circle style="stroke: rgb(0,0,0); stroke-width: 0; stroke-dasharray: none; stroke-linecap: butt; stroke-dashoffset: 0; stroke-linejoin: miter; stroke-miterlimit: 4; fill: rgb(0,0,0); fill-rule: nonzero; opacity: 1;" vector-effect="non-scaling-stroke"  cx="0" cy="0" r="35" />
</g>
<g transform="matrix(0 1.68 -0.78 0 381.21 798.59)" id="7daeac9e-527e-43a1-9f24-cda1c73dfe5e"  >
<path style="stroke: rgb(0,0,0); stroke-width: 0; stroke-dasharray: none; stroke-linecap: butt; stroke-dashoffset: 0; stroke-linejoin: miter; stroke-miterlimit: 4; fill: rgb(0,0,0); fill-rule: nonzero; opacity: 1;" vector-effect="non-scaling-stroke"  transform=" translate(-50, -50)" d="M 94.75 50 C 94.75 56.213 89.514 61.25 83.054 61.25 L 16.946 61.25 C 10.486 61.25 5.25 56.213 5.25 50 L 5.25 50 C 5.25 43.787 10.486 38.75 16.945999999999998 38.75 L 83.053 38.75 C 89.514 38.75 94.75 43.787 94.75 50 L 94.75 50 z" stroke-linecap="round" />
</g>
</svg>